<?xml version="1.0" encoding="utf-8"?>
<!-- Generator: Adobe Illustrator 26.0.3, SVG Export Plug-In . SVG Version: 6.00 Build 0)  -->
<svg version="1.1" id="logo" xmlns="http://www.w3.org/2000/svg" xmlns:xlink="http://www.w3.org/1999/xlink" x="0px" y="0px"
	 viewBox="0 0 799 644.1" style="enable-background:new 0 0 799 644.1;" xml:space="preserve">
<style type="text/css">
	.st0{fill:#FCEB80;}
	.st1{fill:#892D27;}
	.st2{fill:#E4EFD1;}
	.st3{fill:#2C5127;}
	.st4{fill:#FDCF9E;}
	.st5{fill:#944020;}
	.st6{fill:#E5D4E7;}
	.st7{fill:#223165;}
</style>
<g id="brush">
	<path d="M577.4,14c-15.3-9.7-24.3,10.4-24.3,10.4L372.9,346.3c-0.6,1.1-0.9,2.4-0.9,3.8c0.1,2.4,1.6,4.6,3.7,5.7l59.5,30.3
		c4,2,8.9,0.2,10.5-4L578.4,49C578.4,49,590.5,22.3,577.4,14z"/>
	<path d="M366.1,373.9l62.9,30.3c3.3,1.6,4.5,5.6,2.8,8.7l-9.4,17.1c-2,3.6-6.4,5-10.1,3.1L355.5,404c-4.2-2.1-5.9-7.2-4-11.5
		l7.4-16.1C360.2,373.8,363.4,372.7,366.1,373.9z"/>
	<path d="M347.8,422.4l54.3,26.1c1.8,0.9,3.2,2.5,3.7,4.5c18.5,69.4-54.4,132.9-100,171.2c-3,2.5-6,5-9.5,6.6
		c-6.7,3-13.3,2.4-12.5-5.9c0.8-8.8,9-18,12.3-26.1c2-4.9,3.4-10,4.6-15.1c4.9-21.9,7.1-46.3,2.7-68.4c0,0-16.1-75.2,40.6-93.3
		C345.3,421.8,346.6,421.9,347.8,422.4z"/>
</g>
<g id="colours">
	<g id="paint4">
		
			<ellipse id="yellow" transform="matrix(1.239367e-02 -0.9999 0.9999 1.239367e-02 -261.5651 538.6179)" class="st0" cx="141.9" cy="401.7" rx="31" ry="31"/>
		<path id="red" class="st1" d="M144.2,462.3c-33.4,1.3-61.7-24.9-62.9-58.3c-1.3-33.4,24.9-61.7,58.3-62.9
			c33.4-1.3,61.7,24.9,62.9,58.3C203.8,432.8,177.6,461,144.2,462.3z M140.2,357.8c-24.2,0.9-43.2,21.4-42.3,45.6
			s21.4,43.2,45.6,42.3c24.2-0.9,43.2-21.4,42.3-45.6C184.9,375.8,164.4,356.8,140.2,357.8z"/>
	</g>
	<g id="paint3">
		<path id="lightGreen" class="st2" d="M146.1,252.9c0.7,17.1-12.7,31.5-29.8,32.1c-17.1,0.7-31.5-12.7-32.1-29.7
			c-0.7-17.1,12.7-31.5,29.8-32.1C131.1,222.5,145.5,235.8,146.1,252.9z"/>
		<path id="darkGreen" class="st3" d="M117.5,314.7c-33.4,1.3-61.7-24.9-62.9-58.3c-1.3-33.4,24.9-61.7,58.3-62.9
			c33.4-1.3,61.7,24.9,62.9,58.3C177.1,285.2,150.9,313.4,117.5,314.7z M113.5,210.1c-24.2,0.9-43.2,21.4-42.3,45.6
			c0.9,24.2,21.4,43.2,45.6,42.3c24.2-0.9,43.2-21.4,42.3-45.6C158.2,228.1,137.7,209.2,113.5,210.1z"/>
	</g>
	<g id="paint2">
		<path id="lightOrange_00000087404703978807072530000011910785598394070948_" class="st4" d="M233.5,129.8
			c0.7,17.1-12.7,31.5-29.8,32.1c-17.1,0.7-31.5-12.7-32.1-29.7c-0.7-17.1,12.7-31.5,29.8-32.1C218.4,99.4,232.8,112.7,233.5,129.8z
			"/>
		<path id="darkorange" class="st5" d="M204.9,191.6c-33.4,1.3-61.7-24.9-62.9-58.3s24.9-61.7,58.3-62.9
			c33.4-1.3,61.7,24.9,62.9,58.3S238.3,190.3,204.9,191.6z M200.8,87c-24.2,0.9-43.2,21.4-42.3,45.6c0.9,24.2,21.4,43.2,45.6,42.3
			c24.2-0.9,43.2-21.4,42.3-45.6C245.5,105,225.1,86.1,200.8,87z"/>
	</g>
	<g id="paint1">
		<path id="purple" class="st6" d="M379.1,108.3c0.7,17.1-12.7,31.5-29.8,32.1c-17.1,0.7-31.5-12.7-32.1-29.8
			c-0.7-17.1,12.7-31.5,29.8-32.1C364,77.9,378.4,91.2,379.1,108.3z"/>
		<path id="blue" class="st7" d="M350.5,170.1c-33.4,1.3-61.7-24.9-62.9-58.3c-1.3-33.4,24.9-61.6,58.3-62.9
			c33.4-1.3,61.7,24.9,62.9,58.3C410,140.6,383.9,168.8,350.5,170.1z M346.4,65.6c-24.2,0.9-43.2,21.4-42.3,45.6
			c0.9,24.2,21.4,43.2,45.6,42.3c24.2-0.9,43.2-21.4,42.3-45.6C391.1,83.6,370.7,64.6,346.4,65.6z"/>
	</g>
</g>
<g id="palette">
	<path d="M571.1,175.4c-0.8-2.8-1.7-5.5-2.6-8.1c-1-3-3.8-5.1-7-5.2c-3.2-0.1-6.1,1.8-7.3,4.8l-78.6,196.5c-1.1,2.8-0.5,6.1,1.7,8.2
		c2.1,2.2,5.4,2.9,8.2,1.8c19.6-7.6,38.1-19.3,54.2-37c13.4-14.7,23.2-31.9,29.6-50.3c6.4-18.4,9.5-38.1,9.5-57.7
		C578.7,210.4,576.1,192.5,571.1,175.4z M554.7,281c-5.8,16.7-14.6,32-26.5,45.1c-9.7,10.6-20.2,18.7-31.4,25l63-157.4
		c2.3,11.4,3.5,23,3.5,34.6C563.4,246.4,560.5,264.3,554.7,281z"/>
	<path d="M498.3,69.7c-7.2-5.5-14.7-10.6-22.6-15.1C433.2,30.3,382,17.8,334.4,12.8c-11.5-1.2-23.1-1.8-34.8-1.8
		c-40.8,0-81.8,7.4-119.5,22.7c-37.7,15.3-72.1,38.6-99.4,70.4c-37.7,44-58.7,100.7-63.7,158c-0.9,10.8-1.4,21.9-1.4,33.2
		c0,28.4,3.2,57.8,10.2,85.9c7,28.2,18,55.1,33.7,78.7c19,28.5,41.7,55.2,68.5,77.1c12,9.8,26.3,19.7,42,27.4
		c15.7,7.6,32.8,12.9,50.2,12.9c4.1,0,8.2-0.3,12.3-0.9c6.3-1,12.5-3.4,17.7-7.3c2.6-1.9,5-4.3,7.1-7c2-2.7,3.6-5.9,4.6-9.3
		c1-3.4,1.2-6.7,1.2-9.7c0-2.1-0.1-4.1-0.2-5.9l0,0c-0.6-10.8-1.2-21.7-1.8-32.5c-0.5-9.6-1.1-19.2-1.1-28.7c0-0.6,0-1.2,0-1.7l0,0
		c0.1-16.6,1.9-32.5,7.7-46.9c3.5-8.9,8.8-16.9,15.4-23.1c6.6-6.2,14.5-10.7,23.6-12.8c2.5-0.6,5.5-1,8.9-1.9
		c3.3-0.9,7-2.1,10.5-4.7c2.7-2,4.6-4.3,6.2-6.5c1.6-2.3,2.8-4.5,3.9-6.4c16.7-30.2,33.6-60.3,50.6-90.4
		c33.5-59.7,67.1-119.3,100.6-179c4.3-7.7,8.6-15.3,12.9-23C502.1,76.2,501.3,72,498.3,69.7z M373.4,274
		c-16.9,30.1-33.9,60.2-50.6,90.5c-1.1,1.9-2,3.7-3,5c-1,1.4-1.9,2.4-2.8,3c-1.2,0.9-2.9,1.6-5.2,2.2c-2.3,0.6-5.2,1.1-8.4,1.8
		c-12,2.7-22.4,8.7-30.8,16.6c-8.4,7.9-14.8,17.8-19.1,28.6c-6.8,17.1-8.7,34.9-8.8,52.5l0,0c0,0.6,0,1.2,0,1.9
		c0,10,0.5,19.9,1.1,29.5c0.6,10.8,1.2,21.7,1.8,32.5l0,0c0.1,1.8,0.2,3.5,0.2,5.1c0,2.2-0.2,4.1-0.6,5.7c-0.4,1.5-1.1,3-2.1,4.3
		c-1.5,2-3.7,3.9-6.3,5.3c-2.6,1.4-5.6,2.5-8.6,2.9c-3.3,0.5-6.6,0.8-10,0.8c-14.3,0-29.3-4.5-43.5-11.4
		c-14.3-6.9-27.7-16.2-39-25.5c-25.3-20.7-47.2-46.3-65.5-73.8c-14.5-21.8-24.9-47.2-31.6-73.9c-6.7-26.8-9.7-54.9-9.7-82.2
		c0-10.8,0.5-21.5,1.4-31.8c4.8-54.5,24.7-108.2,60.1-149.4c25.5-29.7,57.8-51.7,93.5-66.2c35.7-14.5,74.8-21.6,113.8-21.6
		c11.1,0,22.2,0.6,33.2,1.7C379,32.8,428.3,45,468,67.8c5.4,3.1,10.5,6.4,15.6,10c-3.2,5.7-6.4,11.4-9.6,17.1
		C440.5,154.7,406.9,214.3,373.4,274z"/>
</g>
<g id="text">
	<path d="M526.7,530.2l-18.3-41.6H484v41.6h-20.2V420.1h46.4c26.2,0,38.2,16.5,38.2,34.2c0,14.8-8.1,26.4-20.2,30.9l20.2,45H526.7z
		 M510.2,437.7h-26.4v32.9h26.7c11.3,0,17.9-5.9,17.9-16.3C528.4,445.4,521.6,437.7,510.2,437.7z"/>
	<polygon points="657.3,530.2 657.3,451.6 628.7,528.7 613.9,528.7 585.5,450.7 585.5,530.2 566.1,530.2 566.1,420.1 593.1,420.1 
		622,498.5 651.1,420.1 676.7,420.1 676.7,530.2 	"/>
	<path d="M773.1,530.2l-2.3-12.1c-3.3,6.4-13.8,14-27.6,14.1c-12.7,0.2-24.1-3.1-32.8-12.3c-11.5-12-14.3-26.7-14.3-44.7
		c0-18,2.3-32.3,14.3-44.3c8.4-8.4,21-12.9,32.8-12.9c13.5,0,25.2,5,32.6,12.6c5.4,5.6,9.5,12.6,10.1,22.2h-20.5
		c-0.3-4.3-2.5-7.3-4.8-10.1c-3.9-4.5-9.9-6.7-17.5-6.7c-6.4,0-13.7,2.8-18,7.5c-7.6,7.9-8.5,21.6-8.5,31.7
		c0,10.1,1.1,24.2,8.7,32.1c4.3,4.7,11.5,7,17.9,7c7.1,0,12.7-2.5,16.5-6.4c5.9-6.2,7.1-13,7.1-21.4h-26.2V470H786v60.2H773.1z"/>
	<path d="M483.9,576.3H473v18.3h-9.2v-51.1h20.1c11.8,0,18,6.6,18,16.4C501.9,569.7,495.6,576.3,483.9,576.3z M483.5,551.6H473v16.5
		h10.5c6.2,0,9-3.3,9-8.2C492.5,555,489.7,551.6,483.5,551.6z"/>
	<path d="M531.5,594.6l-0.6-4.9c-1.8,3.7-6,5.8-10.7,5.8c-8,0-13-5.4-13-13.4v-25h9v23c0,4.4,1.7,7.1,6.5,7.1c2.1,0,3.5-0.8,4.6-1.9
		c2.2-2,2.7-5.4,2.7-8.4v-19.8h9v37.5H531.5z"/>
	<path d="M578.3,592.3c-2.3,1.9-5.3,3.2-9.1,3.2c-4.1,0-8.3-1.5-10.5-5l-0.6,4.1h-7.8v-52.1h9v17.3c1.7-2.1,5.3-3.7,9.8-3.7
		c3.8,0,6.9,1.2,9.2,3c4.5,3.7,6.7,9.4,6.7,16.7C585,583,582.8,588.6,578.3,592.3z M573.5,566.7c-1.3-1.7-3.2-3-6.1-3
		c-7.1,0-8.5,6.6-8.5,12c0,3.7,0.6,7.9,3.2,10.2c1.2,1.2,3,1.9,5.3,1.9c2.8,0,4.8-1.3,6.1-3c1.9-2.5,2.4-5.9,2.4-9.2
		C575.8,572.6,575.3,569.2,573.5,566.7z"/>
	<path d="M603.7,595.1c-6.1,0-10.2-3-10.2-10.1v-42.5h9.1v41c0,2.2,0.5,3.6,3.6,3.6c0.8,0,1-0.1,1.5-0.1v7.6
		C605.8,594.9,605.5,595.1,603.7,595.1z"/>
	<path d="M615.3,551.9v-9.3h9.7v9.3H615.3z M615.6,594.6v-37.5h9.2v37.5H615.6z"/>
	<path d="M663.5,589.5c-2.6,3.2-7.1,5.9-12.8,5.9c-5.7,0-10.5-2.7-13.1-5.9c-2.8-3.5-4.1-8.2-4.1-13.7c0-5.5,1.3-10.2,4.1-13.7
		c2.6-3.2,7.4-5.9,13.1-5.9c5.7,0,10.2,2.7,12.8,5.9c1.7,2.2,2.7,5.2,2.9,8.2h-8.9c-0.1-1.4-0.5-2.5-1.1-3.5c-1.1-1.7-3-2.8-5.8-2.8
		c-2.5,0-4.3,1-5.5,2.3c-2.2,2.4-2.5,6-2.5,9.5c0,3.5,0.4,7.1,2.5,9.4c1.2,1.3,3,2.4,5.5,2.4c2.7,0,4.7-1.2,5.8-2.8
		c0.6-0.9,1-2.1,1.1-3.5h8.9C666.2,584.3,665.2,587.3,663.5,589.5z"/>
	<path d="M720.2,594.6l-3.3-9.8h-20.3l-3.3,9.8h-9.4l18-51.1H712l18,51.1H720.2z M706.7,554.9l-7.3,21.6H714L706.7,554.9z"/>
	<path d="M754.3,565.1c-6.3,0-9.7,4.5-9.7,10.6v18.9h-9.1v-37.5h7.6l0.8,5.6c1.7-4.3,6.2-6.1,10.6-6.1c0.9,0,1.9,0.1,2.8,0.2v8.7
		C756.4,565.3,755.3,565.1,754.3,565.1z"/>
	<path d="M778.3,595.1c-7.6,0-11.3-4.3-11.3-11.5v-19h-6.9v-7.4h6.9v-9.5l9-2.2v11.8h9.4v7.4H776v18.3c0,2.9,1.3,4.1,4.2,4.1
		c1.9,0,3.4-0.1,5.8-0.4v7.6C783.5,594.8,780.9,595.1,778.3,595.1z"/>
</g>
</svg>
