<?xml version="1.0" encoding="utf-8"?>
<!-- Generator: Adobe Illustrator 26.0.3, SVG Export Plug-In . SVG Version: 6.00 Build 0)  -->
<svg version="1.1" id="pin" xmlns="http://www.w3.org/2000/svg" xmlns:xlink="http://www.w3.org/1999/xlink" x="0px" y="0px"
	viewBox="0 0 122.4 182.3" style="enable-background:new 0 0 122.4 182.3;" xml:space="preserve">
<g>
	<path class="st0" d="M61,7.9C30.6,7.9,5.9,32.6,5.9,63.1c0,15.8,8.4,28.8,15.7,42.2c6,11.1,13.7,22.2,19.7,33.3
		c6.2,11.3,11.1,22.7,16.9,34c1.2,2.3,4.5,2.3,5.7,0c6.4-12.5,12-24.9,18.7-37.4c4.9-9.1,11.5-18.2,16.4-27.3
		c7.8-14.4,17.1-27.8,17.1-44.9C116.2,32.6,91.5,7.9,61,7.9z" fill="#ff0000"/>
	<path class="st1" d="M85.8,61.4C85.8,75,74.7,86.1,61,86.1S36.3,75,36.3,61.4S47.4,36.7,61,36.7S85.8,47.7,85.8,61.4z" fill="#FFFFFF"/>
	<path class="st1" d="M100.8,61.4h-1.2c0,10.6-4.3,20.3-11.3,27.2c-7,7-16.6,11.3-27.2,11.3c-10.6,0-20.3-4.3-27.2-11.3
		c-7-7-11.3-16.6-11.3-27.2c0-10.6,4.3-20.3,11.3-27.2c7-7,16.6-11.3,27.2-11.3c10.6,0,20.3,4.3,27.2,11.3c7,7,11.3,16.6,11.3,27.2
		H100.8h1.2c0-22.6-18.3-40.9-40.9-40.9c-22.6,0-40.9,18.3-40.9,40.9c0,22.6,18.3,40.9,40.9,40.9c22.6,0,40.9-18.3,40.9-40.9H100.8z
		" fill="#FFFFFF"/>
</g>
</svg>
