<?xml version="1.0" encoding="utf-8"?>
<!-- Generator: Adobe Illustrator 26.0.3, SVG Export Plug-In . SVG Version: 6.00 Build 0)  -->
<svg version="1.1" id="close" xmlns="http://www.w3.org/2000/svg" xmlns:xlink="http://www.w3.org/1999/xlink" x="0px" y="0px"
	 viewBox="0 0 500 500" style="enable-background:new 0 0 500 500;" xml:space="preserve">
<style type="text/css">
	.st0{fill:#010101;}
</style>
<path class="st2" d="M489.1,432.1L302.4,249.3L489.4,62c0.1-0.1,0.2-0.2,0.3-0.3c13.9-14.3,13.7-37.2-0.6-51.1
	c-14.5-14.1-37.7-14-52,0.3l-187,187.3L62.7,14.5c-14.5-14.2-37.7-14-52,0.3c-0.1,0.1-0.2,0.2-0.4,0.4C-3.6,29.5-3.3,52.4,11,66.3
	l187.4,183.6L10.6,438c-0.1,0.1-0.2,0.2-0.3,0.3c-14,14.3-13.7,37.2,0.6,51.1c14.5,14.2,37.7,14,52-0.3l187.8-188.1l186.7,182.8
	c14.5,14.2,37.7,14,52-0.3c0.1-0.1,0.2-0.2,0.3-0.3C503.7,469,503.4,446.1,489.1,432.1z"/>
</svg>
