<?xml version="1.0" encoding="utf-8"?>
<!-- Generator: Adobe Illustrator 26.0.3, SVG Export Plug-In . SVG Version: 6.00 Build 0)  -->
<svg version="1.1" id="compass" xmlns="http://www.w3.org/2000/svg" xmlns:xlink="http://www.w3.org/1999/xlink" x="0px" y="0px"
	 viewBox="0 0 516 516" style="enable-background:new 0 0 516 516;" xml:space="preserve">
<style type="text/css">
	.st0{fill:#FFFFFF;}
	.st1{fill:#010101;}
</style>
<g>
	<circle class="st0" cx="258" cy="258" r="250"/>
	<path class="st1" d="M440.4,75.6c-23.3-23.3-51.1-42.2-82-55.3C327.6,7.2,293.6,0,258,0c-35.6,0-69.6,7.2-100.4,20.3
		c-46.3,19.6-85.7,52.3-113.5,93.5C16.2,154.9,0,204.6,0,258c0,35.6,7.2,69.6,20.3,100.4c19.6,46.3,52.3,85.7,93.5,113.5
		C154.9,499.8,204.6,516,258,516c71.2,0,135.8-28.9,182.4-75.6C487.1,393.8,516,329.2,516,258C516,186.8,487.1,122.2,440.4,75.6z
		 M393.3,458.7C354.7,484.8,308.1,500,258,500c-33.4,0-65.2-6.8-94.2-19c-43.4-18.4-80.4-49.1-106.5-87.7
		C31.2,354.7,16,308.1,16,258c0-33.4,6.8-65.2,19-94.2c18.4-43.4,49.1-80.4,87.7-106.5C161.3,31.2,207.9,16,258,16
		c33.4,0,65.2,6.8,94.2,19c43.4,18.4,80.4,49.1,106.5,87.7C484.8,161.3,500,207.9,500,258c0,33.4-6.8,65.2-19,94.2
		C462.6,395.6,431.9,432.6,393.3,458.7z"/>
	<path d="M255,441.3c-7.2-25.6-14.2-50.2-21-74.8c-8.6-31-15.6-62.6-26.2-92.9c-6.2-18,1.3-32.2,5.4-47.5
		c6.7-25.2,15.1-50,22.6-74.9c7.3-24.3,14.4-48.6,21.6-72.8c0.3-0.9,1.1-1.7,2.5-3.7c4,13.5,7.7,26,11.3,38.5
		c5.9,20.4,12,40.8,17.8,61.2c3.5,12.2,6.5,24.5,9.8,36.8c3.9,14.5,8.5,28.8,11.4,43.4c1.1,5.4-1.2,11.7-2.9,17.4
		c-7.9,26.4-16.3,52.7-24.2,79.2c-8.4,27.8-16.4,55.8-24.7,83.7C257.9,436.7,256.6,438.5,255,441.3z"/>
</g>
</svg>
