<?xml version="1.0" encoding="utf-8"?>
<!-- Generator: Adobe Illustrator 26.0.3, SVG Export Plug-In . SVG Version: 6.00 Build 0)  -->
<svg version="1.1" id="down-arrow" xmlns="http://www.w3.org/2000/svg" xmlns:xlink="http://www.w3.org/1999/xlink" x="0px" y="0px"
	 viewBox="0 0 500 302" style="enable-background:new 0 0 500 302;" xml:space="preserve">
<path d="M453.4,0h8.6c2.4,0.7,4.8,1.3,7.2,2.3c10.5,4.3,17.2,13.2,24.2,21.5c3.3,3.9,4.5,9.7,6.7,14.7v8.9c-0.2,0.1-0.5,0.2-0.5,0.4
	c-0.6,8.2-5,14.5-10.3,20.1c-72.3,74.7-144.7,149.3-217.1,224c-0.9,1-1.9,1.8-2.9,2.7c-4.4,4-9.7,5.8-15.2,7.4h-8.6
	c-0.2-0.2-0.5-0.6-0.7-0.7c-7.4-1.2-14.2-4.7-19.4-10.2C153.9,217.6,82.6,144,11.3,70.4c-2.9-3-5.3-6.5-7.1-10.3
	c-1.9-4-2.9-8.5-4.2-12.7v-9.6c0.2-0.2,0.6-0.5,0.7-0.8c0.4-6.8,3.2-12.5,7-17.9c13.8-19.9,42.6-21.6,59-4.7
	c59.6,61.5,119.2,123,178.8,184.5c1,1,1.9,2.2,3.4,3.9c0.8-1.2,1.7-2.4,2.6-3.5C312.2,136.5,372.9,73.8,433.7,11
	c1-1,2.1-1.9,3.2-2.9C441.6,3.7,447.5,1.8,453.4,0z"/>
</svg>
