<?xml version="1.0" encoding="utf-8"?>
<!-- Generator: Adobe Illustrator 26.0.3, SVG Export Plug-In . SVG Version: 6.00 Build 0)  -->
<svg version="1.1" id="hamburger" xmlns="http://www.w3.org/2000/svg" xmlns:xlink="http://www.w3.org/1999/xlink" x="0px" y="0px"
	 viewBox="0 0 478.3 449.5" style="enable-background:new 0 0 478.3 449.5;" xml:space="preserve">
<style type="text/css">
	.st0{fill:#010101;}
</style>
<g>
	<path class="st2" d="M23.1,13.8h432.1c11.9,0,21.6,13.4,21.6,29.9l0,0c0,16.5-9.7,29.9-21.6,29.9H23.1c-11.9,0-21.6-13.4-21.6-29.9
		l0,0C1.5,27.2,11.2,13.8,23.1,13.8z"/>
	<path class="st2" d="M23.1,375.9h432.1c11.9,0,21.6,13.4,21.6,29.9l0,0c0,16.5-9.7,29.9-21.6,29.9H23.1
		c-11.9,0-21.6-13.4-21.6-29.9l0,0C1.5,389.3,11.2,375.9,23.1,375.9z"/>
	<path class="st2" d="M23.1,194.9h432.1c11.9,0,21.6,13.4,21.6,29.9l0,0c0,16.5-9.7,29.9-21.6,29.9H23.1
		c-11.9,0-21.6-13.4-21.6-29.9l0,0C1.5,208.3,11.2,194.9,23.1,194.9z"/>
</g>
</svg>
