<?xml version="1.0" encoding="utf-8"?>
<!-- Generator: Adobe Illustrator 26.0.3, SVG Export Plug-In . SVG Version: 6.00 Build 0)  -->
<svg version="1.1" id="AR" xmlns="http://www.w3.org/2000/svg" xmlns:xlink="http://www.w3.org/1999/xlink" x="0px" y="0px"
	 viewBox="0 0 520 520" style="enable-background:new 0 0 520 520;" xml:space="preserve">
<style type="text/css">
	.st0{fill:#FFFFFF;}
	.st1{fill:#010101;}
</style>
<circle class="st0" cx="260" cy="260" r="250"/>
<path class="st1" d="M499.6,158.8c-19.7-46.7-52.7-86.4-94.2-114.4C363.9,16.4,313.8,0,260,0c-35.9,0-70.1,7.3-101.2,20.4
	c-46.7,19.7-86.4,52.7-114.4,94.2S0,206.2,0,260c0,35.9,7.3,70.1,20.4,101.2c19.7,46.7,52.7,86.4,94.2,114.4S206.2,520,260,520
	c35.9,0,70.1-7.3,101.2-20.4c46.7-19.7,86.4-52.7,114.4-94.2S520,313.8,520,260C520,224.1,512.7,189.9,499.6,158.8z M394.2,459
	c-38.3,25.9-84.4,41-134.2,41c-33.2,0-64.7-6.7-93.4-18.9c-43.1-18.2-79.7-48.7-105.6-87C35.1,355.9,20,309.7,20,260
	c0-33.2,6.7-64.7,18.9-93.4c18.2-43.1,48.7-79.7,87-105.6s84.4-41,134.2-41c33.2,0,64.7,6.7,93.4,18.9c43.1,18.2,79.7,48.7,105.6,87
	s41,84.4,41,134.2c0,33.2-6.7,64.7-18.9,93.4C462.9,396.5,432.5,433.1,394.2,459z"/>
<g>
	<ellipse transform="matrix(0.9732 -0.2298 0.2298 0.9732 -52.7805 66.6911)" class="st1" cx="260" cy="260" rx="56.8" ry="56.8"/>
	<path class="st1" d="M401.4,233.5H395c-1.8-9.4-4.6-18.5-8.3-27.1c-10.5-24.7-27.9-45.7-49.8-60.5c-11-7.4-23.1-13.3-36-17.3
		c-4.7-1.5-9.5-2.7-14.4-3.6v-6.3c0-14.6-11.9-26.5-26.5-26.5c-14.6,0-26.5,11.9-26.5,26.5v6.4c-9.4,1.8-18.5,4.6-27.1,8.3
		c-24.7,10.5-45.7,27.9-60.5,49.8c-7.4,11-13.3,23.1-17.3,36c-1.5,4.7-2.7,9.5-3.6,14.4h-6.3c-14.6,0-26.5,11.9-26.5,26.5
		c0,14.6,11.9,26.5,26.5,26.5h6.4c1.8,9.4,4.6,18.5,8.3,27.1c10.5,24.7,27.9,45.7,49.8,60.5c11,7.4,23.1,13.3,36,17.3
		c4.7,1.5,9.5,2.7,14.4,3.6v6.3c0,14.6,11.9,26.5,26.5,26.5c14.6,0,26.5-11.9,26.5-26.5V395c9.4-1.8,18.5-4.6,27.1-8.3
		c24.7-10.5,45.7-27.9,60.5-49.8c7.4-11,13.3-23.1,17.3-36c1.5-4.7,2.7-9.5,3.6-14.4h6.3c14.6,0,26.5-11.9,26.5-26.5
		C427.9,245.4,416,233.5,401.4,233.5z M353.5,299.5c-7.7,18.2-20.6,33.7-36.8,44.7c-8.1,5.5-17,9.8-26.6,12.8
		c-9.5,3-19.6,4.6-30.2,4.6c-14.1,0-27.4-2.8-39.5-8c-18.2-7.7-33.7-20.6-44.7-36.8c-5.5-8.1-9.8-17-12.8-26.6
		c-3-9.5-4.6-19.6-4.6-30.2c0-14.1,2.8-27.4,8-39.5c7.7-18.2,20.6-33.7,36.8-44.7c8.1-5.5,17-9.8,26.6-12.8c9.5-3,19.6-4.6,30.2-4.6
		c14.1,0,27.4,2.8,39.5,8c18.2,7.7,33.7,20.6,44.7,36.8c5.5,8.1,9.8,17,12.8,26.6c3,9.5,4.6,19.6,4.6,30.2
		C361.5,274.1,358.7,287.4,353.5,299.5z"/>
</g>
</svg>
