<?xml version="1.0" encoding="utf-8"?>
<!-- Generator: Adobe Illustrator 26.0.3, SVG Export Plug-In . SVG Version: 6.00 Build 0)  -->
<svg version="1.1" id="search" xmlns="http://www.w3.org/2000/svg" xmlns:xlink="http://www.w3.org/1999/xlink" x="0px" y="0px"
	 viewBox="0 0 524.1 524.1" style="enable-background:new 0 0 524.1 524.1;" xml:space="preserve">
<style type="text/css">
	.st0{fill:none;stroke:#D8D9D8;stroke-width:16.76;stroke-miterlimit:10;}
	.st1{fill:#FFFFFF;}
</style>
<path class="st0" d="M547,323.8"/>
<circle class="st1" cx="262" cy="262" r="250"/>
<path d="M503.5,160c-19.9-47-53.1-87-94.9-115.3C366.8,16.5,316.3,0,262,0c-36.1,0-70.6,7.3-102,20.6c-47,19.9-87,53.1-115.3,94.9
	C16.5,157.3,0,207.8,0,262c0,36.1,7.3,70.6,20.6,102c19.9,47,53.1,87,94.9,115.3c41.8,28.3,92.3,44.8,146.5,44.8
	c36.1,0,70.6-7.3,102-20.6c47-19.9,87-53.1,115.3-94.9c28.3-41.8,44.8-92.3,44.8-146.5C524.1,225.9,516.8,191.4,503.5,160z
	 M481.3,354.7c-18.1,42.7-48.2,79-86.2,104.7c-38,25.7-83.7,40.6-133,40.6c-32.9,0-64.2-6.7-92.6-18.7
	c-42.7-18.1-79-48.2-104.7-86.2c-25.7-38-40.6-83.7-40.6-133c0-32.9,6.7-64.2,18.7-92.6C60.8,126.7,91,90.4,129,64.7
	c38-25.7,83.7-40.6,133-40.6c32.9,0,64.2,6.7,92.6,18.7c42.7,18.1,79,48.2,104.7,86.2C485,167,500,212.7,500,262
	C500,294.9,493.3,326.2,481.3,354.7z"/>
<path d="M284.1,114.7c-58.5,0.1-105.9,47.7-105.8,106.2c0.1,23.4,7.8,46.1,22.1,64.6l-82.7,83.1c-7.5,7.6-7.5,19.8,0.1,27.3l1.8,1.8
	c7.6,7.5,19.8,7.5,27.3-0.1l84.6-85.1c50.8,29.2,115.6,11.6,144.7-39.1c29.2-50.8,11.6-115.6-39.1-144.7
	C321,119.5,302.7,114.7,284.1,114.7L284.1,114.7z M284.6,288.8c-37.6,0.1-68.1-30.3-68.1-67.9c-0.1-37.6,30.3-68.1,67.9-68.1
	c37.5-0.1,68,30.3,68.1,67.8C352.5,258.1,322.2,288.7,284.6,288.8z"/>
</svg>
