<?xml version="1.0" encoding="utf-8"?>
<!-- Generator: Adobe Illustrator 26.0.3, SVG Export Plug-In . SVG Version: 6.00 Build 0)  -->
<svg version="1.1" id="up-arrow" xmlns="http://www.w3.org/2000/svg" xmlns:xlink="http://www.w3.org/1999/xlink" x="0px" y="0px"
	 viewBox="0 0 500 302" style="enable-background:new 0 0 500 302;" xml:space="preserve">
<path d="M453.4,302h8.6c2.4-0.7,4.8-1.3,7.2-2.3c10.5-4.3,17.2-13.2,24.2-21.5c3.3-3.9,4.5-9.7,6.7-14.7v-8.9
	c-0.2-0.1-0.5-0.2-0.5-0.4c-0.6-8.2-5-14.5-10.3-20.1C416.8,159.5,344.4,84.8,272,10.2c-0.9-1-1.9-1.8-2.9-2.7
	c-4.4-4-9.7-5.8-15.2-7.4h-8.6c-0.2,0.2-0.5,0.6-0.7,0.7c-7.4,1.2-14.2,4.7-19.4,10.2C153.9,84.4,82.6,158,11.3,231.6
	c-2.9,3-5.3,6.5-7.1,10.3c-1.9,4-2.9,8.5-4.2,12.7v9.6c0.2,0.2,0.6,0.5,0.7,0.8c0.4,6.8,3.2,12.5,7,17.9c13.8,19.9,42.6,21.6,59,4.7
	c59.6-61.5,119.2-123,178.8-184.5c1-1,1.9-2.2,3.4-3.9c0.8,1.2,1.7,2.4,2.6,3.5c60.7,62.7,121.5,125.5,182.3,188.2
	c1,1,2.1,1.9,3.2,2.9C441.6,298.3,447.5,300.2,453.4,302z"/>
</svg>
