<?xml version="1.0" encoding="utf-8"?>
<!-- Generator: Adobe Illustrator 26.0.3, SVG Export Plug-In . SVG Version: 6.00 Build 0)  -->
<svg version="1.1" id="audio" xmlns="http://www.w3.org/2000/svg" xmlns:xlink="http://www.w3.org/1999/xlink" x="0px" y="0px"
	 viewBox="0 0 520 520" style="enable-background:new 0 0 520 520;" xml:space="preserve">
<style type="text/css">
	.st0{fill:#FFFFFF;}
	.st1{fill:#010101;}
</style>
<circle class="st0" cx="260" cy="260" r="250"/>
<path class="st1" d="M499.6,158.8c-19.7-46.7-52.7-86.4-94.2-114.4C363.9,16.4,313.8,0,260,0c-35.9,0-70.1,7.3-101.2,20.4
	c-46.7,19.7-86.4,52.7-114.4,94.2C16.4,156.1,0,206.2,0,260c0,35.9,7.3,70.1,20.4,101.2c19.7,46.7,52.7,86.4,94.2,114.4
	c41.5,28,91.6,44.4,145.4,44.4c35.9,0,70.1-7.3,101.2-20.4c46.7-19.7,86.4-52.7,114.4-94.2c28-41.5,44.4-91.6,44.4-145.4
	C520,224.1,512.7,189.9,499.6,158.8z M394.2,459c-38.3,25.9-84.4,41-134.2,41c-33.2,0-64.7-6.7-93.4-18.9
	c-43.1-18.2-79.7-48.7-105.6-87C35.1,355.9,20,309.7,20,260c0-33.2,6.7-64.7,18.9-93.4c18.2-43.1,48.7-79.7,87-105.6
	c38.3-25.9,84.4-41,134.2-41c33.2,0,64.7,6.7,93.4,18.9c43.1,18.2,79.7,48.7,105.6,87c25.9,38.3,41,84.4,41,134.2
	c0,33.2-6.7,64.7-18.9,93.4C462.9,396.5,432.5,433.1,394.2,459z"/>
<path d="M112,222.2c1.6-6.3,4.6-11.8,10.8-14.5c3.3-1.4,6.9-2.1,10.4-2.1c13.5-0.2,27,0,40.4-0.2c1.8,0,3.6-0.6,5.1-1.7
	c30.3-24.1,60.6-48.3,90.8-72.6c3.1-2.5,6.2-4.3,10.4-3.1c4,1.1,6.8,4.6,7,8.7c0.1,1,0.1,1.9,0.1,2.9c0,82.8,0,165.6,0,248.4
	c0,3.7-0.5,7-3.4,9.6c-3.9,3.4-8.8,3.2-13.7-0.7c-11.6-9.3-23.3-18.6-34.9-27.9c-18.8-15.1-37.7-30.1-56.5-45.1
	c-1.3-1-2.9-1.5-4.6-1.6c-13.7-0.1-27.4,0-41-0.1c-10.8,0-17.4-5-20.4-15.4c-0.1-0.4-0.3-0.9-0.5-1.3L112,222.2z M267.5,157.9
	c-0.8,0.6-1.3,0.9-1.8,1.3c-24.8,19.8-49.5,39.6-74.3,59.5c-0.9,0.9-1.5,2.1-1.5,3.3c-0.1,27.8-0.1,55.7,0,83.5
	c0.1,1.3,0.6,2.6,1.6,3.5c24.6,19.8,49.2,39.5,73.8,59.1c0.6,0.5,1.3,0.9,2.1,1.4L267.5,157.9z M170.2,225.2h-38.6v77.3h38.6
	L170.2,225.2z"/>
<path d="M403.9,272.4c-0.8,5.3-1.3,10.7-2.3,16c-5,27.7-17.7,51.5-37.5,71.4c-3.6,3.9-9.8,4.1-13.7,0.5s-4.1-9.8-0.5-13.7
	c0.1-0.1,0.2-0.2,0.3-0.3c10.2-10.3,18.4-22.3,24.3-35.5c14.1-32.1,13-68.9-3-100.1c-5.4-10.3-12.2-19.7-20.2-28.1
	c-1.8-1.9-3.1-4.2-3.8-6.7c-0.8-4.1,1.2-8.2,5-10c3.8-2.1,8.6-1.3,11.5,2c6,6.9,12.3,13.8,17.4,21.4c12.9,18.9,20.5,41,22,63.8
	c0.1,0.7,0.3,1.5,0.5,2.2L403.9,272.4z"/>
<path d="M365,256.7c-0.5,33.6-9.7,56.4-28.2,75.4c-4,4.1-9.8,4.4-13.8,0.7c-3.9-3.5-4.3-9.5-0.8-13.4c0.1-0.1,0.2-0.2,0.3-0.3
	c6.5-6.8,11.9-14.5,16-23c12.8-27.2,7.5-62-12.9-84c-1.2-1.3-2.3-2.5-3.4-3.8c-3.5-4-3.1-10.2,1-13.7c3.9-3.4,9.8-3.1,13.4,0.7
	c6.7,6.7,12.5,14.4,17,22.8C361,231.8,365.1,248.6,365,256.7z"/>
</svg>
