<?xml version="1.0" encoding="utf-8"?>
<!-- Generator: Adobe Illustrator 26.0.3, SVG Export Plug-In . SVG Version: 6.00 Build 0)  -->
<svg version="1.1" id="zoom-in" xmlns="http://www.w3.org/2000/svg" xmlns:xlink="http://www.w3.org/1999/xlink" x="0px" y="0px"
	 viewBox="0 0 515 515" style="enable-background:new 0 0 515 515;" xml:space="preserve">
<style type="text/css">
	.st0{fill:#FFFFFF;}
	.st1{fill:#010101;}
</style>
<circle class="st0" cx="257.5" cy="257.5" r="250"/>
<path class="st1" d="M439.6,75.4C393,28.8,328.6,0,257.5,0C186.4,0,122,28.8,75.4,75.4C28.8,122,0,186.4,0,257.5
	C0,328.6,28.8,393,75.4,439.6c46.6,46.6,111,75.4,182.1,75.4c71.1,0,135.5-28.8,182.1-75.4c46.6-46.6,75.4-111,75.4-182.1
	C515,186.4,486.2,122,439.6,75.4z M429,429c-43.9,43.9-104.5,71-171.5,71c-67,0-127.6-27.1-171.5-71c-43.9-43.9-71-104.5-71-171.5
	c0-67,27.1-127.6,71-171.5c43.9-43.9,104.5-71,171.5-71c67,0,127.6,27.1,171.5,71c43.9,43.9,71,104.5,71,171.5
	C500,324.5,472.9,385.1,429,429z"/>
<path class="st1" d="M412.6,235.3H277V100.8c0-10.4-8.4-18.8-18.8-18.8s-18.8,8.4-18.8,18.8v134.5H103.2c-10.4,0-18.8,8.4-18.8,18.8
	s8.4,18.8,18.8,18.8h136.3v133.9c0,10.4,8.4,18.8,18.8,18.8s18.8-8.4,18.8-18.8V272.8h135.7c10.4,0,18.8-8.4,18.8-18.8
	S423,235.3,412.6,235.3z"/>
</svg>
