<?xml version="1.0" encoding="utf-8"?>
<!-- Generator: Adobe Illustrator 26.0.3, SVG Export Plug-In . SVG Version: 6.00 Build 0)  -->
<svg version="1.1" id="zoom-out" xmlns="http://www.w3.org/2000/svg" xmlns:xlink="http://www.w3.org/1999/xlink" x="0px" y="0px"
	 viewBox="0 0 515 515" style="enable-background:new 0 0 515 515;" xml:space="preserve">
<style type="text/css">
	.st0{fill:#FFFFFF;}
	.st1{fill:#010101;}
</style>
<g>
	<circle class="st0" cx="257.5" cy="257.5" r="250"/>
	<path class="st1" d="M439.6,75.4C393,28.8,328.6,0,257.5,0C186.4,0,122,28.8,75.4,75.4C28.8,122,0,186.4,0,257.5
		C0,328.6,28.8,393,75.4,439.6c46.6,46.6,111,75.4,182.1,75.4c71.1,0,135.5-28.8,182.1-75.4c46.6-46.6,75.4-111,75.4-182.1
		C515,186.4,486.2,122,439.6,75.4z M429,429c-43.9,43.9-104.5,71-171.5,71c-67,0-127.6-27.1-171.5-71c-43.9-43.9-71-104.5-71-171.5
		c0-67,27.1-127.6,71-171.5c43.9-43.9,104.5-71,171.5-71c67,0,127.6,27.1,171.5,71c43.9,43.9,71,104.5,71,171.5
		C500,324.5,472.9,385.1,429,429z"/>
	<path class="st1" d="M101.4,239h312.2c8.6,0,15.6,8.3,15.6,18.5v0c0,10.2-7,18.5-15.6,18.5H101.4c-8.6,0-15.6-8.3-15.6-18.5v0
		C85.8,247.3,92.8,239,101.4,239z"/>
</g>
</svg>
